<mxfile host="app.diagrams.net" modified="2021-12-19T19:02:48.892Z" agent="5.0 (Windows NT 10.0; Win64; x64) AppleWebKit/537.36 (KHTML, like Gecko) Chrome/96.0.4664.93 Safari/537.36" etag="gAPqShHm05c2IlKEMrVF" version="15.9.5" type="github" pages="3">
  <diagram id="9t8tm0f1Dv-5ZsUDHWTn" name="Login">
    <mxGraphModel dx="1320" dy="516" grid="1" gridSize="10" guides="1" tooltips="1" connect="1" arrows="1" fold="1" page="1" pageScale="1" pageWidth="850" pageHeight="1100" math="0" shadow="0">
      <root>
        <mxCell id="VujaP5UjfB3nqV_x-gGi-0" />
        <mxCell id="VujaP5UjfB3nqV_x-gGi-1" parent="VujaP5UjfB3nqV_x-gGi-0" />
        <mxCell id="8kJNRwA0rfisOOfL3NNy-1" value="&lt;h1&gt;&lt;u&gt;&lt;font style=&quot;font-size: 36px&quot;&gt;The Box Project&lt;/font&gt;&lt;/u&gt;&lt;/h1&gt;&lt;div&gt;&lt;font style=&quot;font-size: 12px&quot;&gt;&lt;div&gt;How much of your time have you spent looking for your belongings from a previous move or in your storage?&lt;/div&gt;&lt;div&gt;- your time is valuable&lt;/div&gt;&lt;div&gt;&lt;br&gt;&lt;/div&gt;&lt;div&gt;How often have you put something of your&#39;s away without knowing which box its in?&lt;/div&gt;&lt;div&gt;- your items are sentimental&lt;/div&gt;&lt;div&gt;&lt;br&gt;&lt;/div&gt;&lt;div&gt;How many times have you placed a box in storage and not know where its placed?&lt;/div&gt;&lt;div&gt;- the box you have been looking for was actually in your trunk!&lt;/div&gt;&lt;/font&gt;&lt;/div&gt;" style="text;html=1;strokeColor=none;fillColor=none;spacing=5;spacingTop=-20;whiteSpace=wrap;overflow=hidden;rounded=0;shadow=0;align=center;" vertex="1" parent="VujaP5UjfB3nqV_x-gGi-1">
          <mxGeometry x="10" y="39" width="360" height="120" as="geometry" />
        </mxCell>
        <mxCell id="8kJNRwA0rfisOOfL3NNy-3" value="" style="html=1;shadow=0;dashed=0;shape=mxgraph.bootstrap.rrect;rSize=5;fillColor=#ffffff;strokeColor=#999999;fontSize=12;" vertex="1" parent="VujaP5UjfB3nqV_x-gGi-1">
          <mxGeometry x="550" y="170" width="220" height="345" as="geometry" />
        </mxCell>
        <mxCell id="8kJNRwA0rfisOOfL3NNy-4" value="Email address" style="fillColor=none;strokeColor=none;align=left;spacing=20;fontSize=14;shadow=0;" vertex="1" parent="8kJNRwA0rfisOOfL3NNy-3">
          <mxGeometry width="220" height="40" relative="1" as="geometry">
            <mxPoint y="10" as="offset" />
          </mxGeometry>
        </mxCell>
        <mxCell id="8kJNRwA0rfisOOfL3NNy-5" value="email@example.com" style="html=1;shadow=0;dashed=0;shape=mxgraph.bootstrap.rrect;rSize=5;fillColor=none;strokeColor=#999999;align=left;spacing=15;fontSize=14;fontColor=#6C767D;" vertex="1" parent="8kJNRwA0rfisOOfL3NNy-3">
          <mxGeometry width="180" height="30" relative="1" as="geometry">
            <mxPoint x="20" y="50" as="offset" />
          </mxGeometry>
        </mxCell>
        <mxCell id="8kJNRwA0rfisOOfL3NNy-6" value="Password" style="fillColor=none;strokeColor=none;align=left;spacing=20;fontSize=14;shadow=0;" vertex="1" parent="8kJNRwA0rfisOOfL3NNy-3">
          <mxGeometry width="220" height="40" relative="1" as="geometry">
            <mxPoint y="90" as="offset" />
          </mxGeometry>
        </mxCell>
        <mxCell id="8kJNRwA0rfisOOfL3NNy-7" value="Password" style="html=1;shadow=0;dashed=0;shape=mxgraph.bootstrap.rrect;rSize=5;fillColor=none;strokeColor=#999999;align=left;spacing=15;fontSize=14;fontColor=#6C767D;" vertex="1" parent="8kJNRwA0rfisOOfL3NNy-3">
          <mxGeometry width="180" height="30" relative="1" as="geometry">
            <mxPoint x="20" y="130" as="offset" />
          </mxGeometry>
        </mxCell>
        <mxCell id="8kJNRwA0rfisOOfL3NNy-8" value="Remember me" style="html=1;shadow=0;dashed=0;shape=mxgraph.bootstrap.rrect;rSize=2;fillColor=#EDEDED;strokeColor=#999999;align=left;fontSize=14;fontColor=#000000;labelPosition=right;verticalLabelPosition=middle;verticalAlign=middle;spacingLeft=5;spacingTop=-2;gradientColor=#DEDEDE;" vertex="1" parent="8kJNRwA0rfisOOfL3NNy-3">
          <mxGeometry width="10" height="10" relative="1" as="geometry">
            <mxPoint x="20" y="180" as="offset" />
          </mxGeometry>
        </mxCell>
        <mxCell id="8kJNRwA0rfisOOfL3NNy-9" value="Sign in" style="html=1;shadow=0;dashed=0;shape=mxgraph.bootstrap.rrect;rSize=5;fillColor=#0085FC;strokeColor=none;align=center;fontSize=14;fontColor=#FFFFFF;" vertex="1" parent="8kJNRwA0rfisOOfL3NNy-3">
          <mxGeometry width="70" height="40" relative="1" as="geometry">
            <mxPoint x="20" y="210" as="offset" />
          </mxGeometry>
        </mxCell>
        <mxCell id="8kJNRwA0rfisOOfL3NNy-10" value="" style="shape=line;strokeColor=#999999;perimeter=none;resizeWidth=1;shadow=0;fontSize=12;" vertex="1" parent="8kJNRwA0rfisOOfL3NNy-3">
          <mxGeometry width="220" height="10" relative="1" as="geometry">
            <mxPoint y="260" as="offset" />
          </mxGeometry>
        </mxCell>
        <mxCell id="8kJNRwA0rfisOOfL3NNy-11" value="New around here? Sign up&lt;br&gt;&lt;br&gt;Forgot password?" style="html=1;fillColor=none;strokeColor=none;align=left;spacing=20;fontSize=14;shadow=0;" vertex="1" parent="8kJNRwA0rfisOOfL3NNy-3">
          <mxGeometry width="220" height="60" relative="1" as="geometry">
            <mxPoint y="275" as="offset" />
          </mxGeometry>
        </mxCell>
      </root>
    </mxGraphModel>
  </diagram>
  <diagram name="Home" id="03018318-947c-dd8e-b7a3-06fadd420f32">
    <mxGraphModel dx="1320" dy="516" grid="1" gridSize="10" guides="1" tooltips="1" connect="1" arrows="1" fold="1" page="1" pageScale="1" pageWidth="1100" pageHeight="850" background="none" math="0" shadow="0">
      <root>
        <mxCell id="0" />
        <mxCell id="1" parent="0" />
        <mxCell id="677b7b8949515195-2" value="T.B.P." style="whiteSpace=wrap;html=1;rounded=0;shadow=0;labelBackgroundColor=none;strokeWidth=1;fontFamily=Verdana;fontSize=28;align=center;comic=1;" parent="1" vertex="1">
          <mxGeometry x="40" y="40" width="190" height="50" as="geometry" />
        </mxCell>
        <mxCell id="677b7b8949515195-3" value="Search" style="strokeWidth=1;shadow=0;dashed=0;align=center;html=1;shape=mxgraph.mockup.forms.searchBox;strokeColor=#999999;mainText=;strokeColor2=#008cff;fontColor=#666666;fontSize=17;align=left;spacingLeft=3;rounded=0;labelBackgroundColor=none;comic=1;" parent="1" vertex="1">
          <mxGeometry x="840" y="90" width="220" height="30" as="geometry" />
        </mxCell>
        <mxCell id="677b7b8949515195-4" value="Create" style="text;html=1;points=[];align=left;verticalAlign=top;spacingTop=-4;fontSize=14;fontFamily=Verdana" parent="1" vertex="1">
          <mxGeometry x="780" y="40" width="60" height="20" as="geometry" />
        </mxCell>
        <mxCell id="677b7b8949515195-5" value="Edit" style="text;html=1;points=[];align=left;verticalAlign=top;spacingTop=-4;fontSize=14;fontFamily=Verdana;shadow=0;" parent="1" vertex="1">
          <mxGeometry x="860" y="40" width="60" height="20" as="geometry" />
        </mxCell>
        <mxCell id="677b7b8949515195-6" value="List" style="text;html=1;points=[];align=left;verticalAlign=top;spacingTop=-4;fontSize=14;fontFamily=Verdana" parent="1" vertex="1">
          <mxGeometry x="930" y="40" width="60" height="20" as="geometry" />
        </mxCell>
        <mxCell id="677b7b8949515195-7" value="Logout" style="text;html=1;points=[];align=left;verticalAlign=top;spacingTop=-4;fontSize=14;fontFamily=Verdana" parent="1" vertex="1">
          <mxGeometry x="1000" y="40" width="60" height="20" as="geometry" />
        </mxCell>
        <mxCell id="677b7b8949515195-9" value="" style="line;strokeWidth=1;html=1;rounded=0;shadow=0;labelBackgroundColor=none;fillColor=none;fontFamily=Verdana;fontSize=14;fontColor=#000000;align=center;comic=1;" parent="1" vertex="1">
          <mxGeometry x="10" y="140" width="1060" height="10" as="geometry" />
        </mxCell>
        <mxCell id="677b7b8949515195-10" value="" style="whiteSpace=wrap;html=1;rounded=0;shadow=0;labelBackgroundColor=none;strokeWidth=1;fillColor=none;fontFamily=Verdana;fontSize=12;align=center;comic=1;" parent="1" vertex="1">
          <mxGeometry x="30" y="160" width="1040" height="50" as="geometry" />
        </mxCell>
        <mxCell id="677b7b8949515195-11" value="Welcome User, you have N total boxes in L different locations" style="text;html=1;points=[];align=left;verticalAlign=top;spacingTop=-4;fontSize=14;fontFamily=Verdana" parent="1" vertex="1">
          <mxGeometry x="330" y="175" width="60" height="20" as="geometry" />
        </mxCell>
        <mxCell id="BrATa0ru9mYFAxRUwRc1-3" value="Create Box" style="swimlane;fontStyle=0;childLayout=stackLayout;horizontal=1;startSize=30;horizontalStack=0;resizeParent=1;resizeParentMax=0;resizeLast=0;collapsible=1;marginBottom=0;" vertex="1" parent="1">
          <mxGeometry x="60" y="240" width="160" height="120" as="geometry">
            <mxRectangle x="40" y="240" width="50" height="30" as="alternateBounds" />
          </mxGeometry>
        </mxCell>
        <mxCell id="BrATa0ru9mYFAxRUwRc1-4" value="Item 1" style="text;strokeColor=none;fillColor=none;align=left;verticalAlign=middle;spacingLeft=4;spacingRight=4;overflow=hidden;points=[[0,0.5],[1,0.5]];portConstraint=eastwest;rotatable=0;" vertex="1" parent="BrATa0ru9mYFAxRUwRc1-3">
          <mxGeometry y="30" width="160" height="30" as="geometry" />
        </mxCell>
        <mxCell id="BrATa0ru9mYFAxRUwRc1-5" value="Item 2" style="text;strokeColor=none;fillColor=none;align=left;verticalAlign=middle;spacingLeft=4;spacingRight=4;overflow=hidden;points=[[0,0.5],[1,0.5]];portConstraint=eastwest;rotatable=0;" vertex="1" parent="BrATa0ru9mYFAxRUwRc1-3">
          <mxGeometry y="60" width="160" height="30" as="geometry" />
        </mxCell>
        <mxCell id="BrATa0ru9mYFAxRUwRc1-6" value="Item 3" style="text;strokeColor=none;fillColor=none;align=left;verticalAlign=middle;spacingLeft=4;spacingRight=4;overflow=hidden;points=[[0,0.5],[1,0.5]];portConstraint=eastwest;rotatable=0;" vertex="1" parent="BrATa0ru9mYFAxRUwRc1-3">
          <mxGeometry y="90" width="160" height="30" as="geometry" />
        </mxCell>
        <mxCell id="BrATa0ru9mYFAxRUwRc1-8" value="Edit Box" style="swimlane;fontStyle=0;childLayout=stackLayout;horizontal=1;startSize=30;horizontalStack=0;resizeParent=1;resizeParentMax=0;resizeLast=0;collapsible=1;marginBottom=0;" vertex="1" parent="1">
          <mxGeometry x="900" y="240" width="140" height="120" as="geometry" />
        </mxCell>
        <mxCell id="BrATa0ru9mYFAxRUwRc1-9" value="Item 1" style="text;strokeColor=none;fillColor=none;align=left;verticalAlign=middle;spacingLeft=4;spacingRight=4;overflow=hidden;points=[[0,0.5],[1,0.5]];portConstraint=eastwest;rotatable=0;" vertex="1" parent="BrATa0ru9mYFAxRUwRc1-8">
          <mxGeometry y="30" width="140" height="30" as="geometry" />
        </mxCell>
        <mxCell id="BrATa0ru9mYFAxRUwRc1-10" value="Item 2" style="text;strokeColor=none;fillColor=none;align=left;verticalAlign=middle;spacingLeft=4;spacingRight=4;overflow=hidden;points=[[0,0.5],[1,0.5]];portConstraint=eastwest;rotatable=0;" vertex="1" parent="BrATa0ru9mYFAxRUwRc1-8">
          <mxGeometry y="60" width="140" height="30" as="geometry" />
        </mxCell>
        <mxCell id="BrATa0ru9mYFAxRUwRc1-11" value="Item 3" style="text;strokeColor=none;fillColor=none;align=left;verticalAlign=middle;spacingLeft=4;spacingRight=4;overflow=hidden;points=[[0,0.5],[1,0.5]];portConstraint=eastwest;rotatable=0;" vertex="1" parent="BrATa0ru9mYFAxRUwRc1-8">
          <mxGeometry y="90" width="140" height="30" as="geometry" />
        </mxCell>
        <mxCell id="BrATa0ru9mYFAxRUwRc1-14" value="List Box" style="swimlane;fontStyle=0;childLayout=stackLayout;horizontal=1;startSize=30;horizontalStack=0;resizeParent=1;resizeParentMax=0;resizeLast=0;collapsible=1;marginBottom=0;" vertex="1" parent="1">
          <mxGeometry x="310" y="240" width="140" height="120" as="geometry" />
        </mxCell>
        <mxCell id="BrATa0ru9mYFAxRUwRc1-15" value="Item 1" style="text;strokeColor=none;fillColor=none;align=left;verticalAlign=middle;spacingLeft=4;spacingRight=4;overflow=hidden;points=[[0,0.5],[1,0.5]];portConstraint=eastwest;rotatable=0;" vertex="1" parent="BrATa0ru9mYFAxRUwRc1-14">
          <mxGeometry y="30" width="140" height="30" as="geometry" />
        </mxCell>
        <mxCell id="BrATa0ru9mYFAxRUwRc1-16" value="Item 2" style="text;strokeColor=none;fillColor=none;align=left;verticalAlign=middle;spacingLeft=4;spacingRight=4;overflow=hidden;points=[[0,0.5],[1,0.5]];portConstraint=eastwest;rotatable=0;" vertex="1" parent="BrATa0ru9mYFAxRUwRc1-14">
          <mxGeometry y="60" width="140" height="30" as="geometry" />
        </mxCell>
        <mxCell id="BrATa0ru9mYFAxRUwRc1-17" value="Item 3" style="text;strokeColor=none;fillColor=none;align=left;verticalAlign=middle;spacingLeft=4;spacingRight=4;overflow=hidden;points=[[0,0.5],[1,0.5]];portConstraint=eastwest;rotatable=0;" vertex="1" parent="BrATa0ru9mYFAxRUwRc1-14">
          <mxGeometry y="90" width="140" height="30" as="geometry" />
        </mxCell>
        <mxCell id="BrATa0ru9mYFAxRUwRc1-18" value="Search Box" style="swimlane;fontStyle=0;childLayout=stackLayout;horizontal=1;startSize=30;horizontalStack=0;resizeParent=1;resizeParentMax=0;resizeLast=0;collapsible=1;marginBottom=0;" vertex="1" parent="1">
          <mxGeometry x="600" y="240" width="140" height="120" as="geometry" />
        </mxCell>
        <mxCell id="BrATa0ru9mYFAxRUwRc1-19" value="Item 1" style="text;strokeColor=none;fillColor=none;align=left;verticalAlign=middle;spacingLeft=4;spacingRight=4;overflow=hidden;points=[[0,0.5],[1,0.5]];portConstraint=eastwest;rotatable=0;" vertex="1" parent="BrATa0ru9mYFAxRUwRc1-18">
          <mxGeometry y="30" width="140" height="30" as="geometry" />
        </mxCell>
        <mxCell id="BrATa0ru9mYFAxRUwRc1-20" value="Item 2" style="text;strokeColor=none;fillColor=none;align=left;verticalAlign=middle;spacingLeft=4;spacingRight=4;overflow=hidden;points=[[0,0.5],[1,0.5]];portConstraint=eastwest;rotatable=0;" vertex="1" parent="BrATa0ru9mYFAxRUwRc1-18">
          <mxGeometry y="60" width="140" height="30" as="geometry" />
        </mxCell>
        <mxCell id="BrATa0ru9mYFAxRUwRc1-21" value="Item 3" style="text;strokeColor=none;fillColor=none;align=left;verticalAlign=middle;spacingLeft=4;spacingRight=4;overflow=hidden;points=[[0,0.5],[1,0.5]];portConstraint=eastwest;rotatable=0;" vertex="1" parent="BrATa0ru9mYFAxRUwRc1-18">
          <mxGeometry y="90" width="140" height="30" as="geometry" />
        </mxCell>
        <mxCell id="BrATa0ru9mYFAxRUwRc1-25" value="The Box project&amp;nbsp;" style="text;html=1;strokeColor=none;fillColor=none;align=center;verticalAlign=middle;whiteSpace=wrap;rounded=0;" vertex="1" parent="1">
          <mxGeometry x="430" y="820" width="100" height="30" as="geometry" />
        </mxCell>
      </root>
    </mxGraphModel>
  </diagram>
  <diagram id="W912YU_SiTQtiRt8Is4y" name="Create">
    <mxGraphModel dx="1320" dy="482" grid="1" gridSize="10" guides="1" tooltips="1" connect="1" arrows="1" fold="1" page="1" pageScale="1" pageWidth="850" pageHeight="1100" math="0" shadow="0">
      <root>
        <mxCell id="JdckZwiv4Vz8IotJhRvg-0" />
        <mxCell id="JdckZwiv4Vz8IotJhRvg-1" parent="JdckZwiv4Vz8IotJhRvg-0" />
        <mxCell id="lLQE4Lo4S0J3LvxltAaA-0" value="T.B.P." style="whiteSpace=wrap;html=1;rounded=0;shadow=0;labelBackgroundColor=none;strokeWidth=1;fontFamily=Verdana;fontSize=28;align=center;comic=1;" vertex="1" parent="JdckZwiv4Vz8IotJhRvg-1">
          <mxGeometry x="40" y="40" width="190" height="50" as="geometry" />
        </mxCell>
        <mxCell id="rdz7uWnduueVoSSrd4sw-0" value="Create" style="text;html=1;points=[];align=left;verticalAlign=top;spacingTop=-4;fontSize=14;fontFamily=Verdana" vertex="1" parent="JdckZwiv4Vz8IotJhRvg-1">
          <mxGeometry x="740" y="40" width="60" height="20" as="geometry" />
        </mxCell>
        <mxCell id="rdz7uWnduueVoSSrd4sw-1" value="Logout" style="text;html=1;points=[];align=left;verticalAlign=top;spacingTop=-4;fontSize=14;fontFamily=Verdana" vertex="1" parent="JdckZwiv4Vz8IotJhRvg-1">
          <mxGeometry x="980" y="40" width="60" height="20" as="geometry" />
        </mxCell>
        <mxCell id="rdz7uWnduueVoSSrd4sw-2" value="List" style="text;html=1;points=[];align=left;verticalAlign=top;spacingTop=-4;fontSize=14;fontFamily=Verdana" vertex="1" parent="JdckZwiv4Vz8IotJhRvg-1">
          <mxGeometry x="910" y="40" width="60" height="20" as="geometry" />
        </mxCell>
        <mxCell id="rdz7uWnduueVoSSrd4sw-3" value="Edit" style="text;html=1;points=[];align=left;verticalAlign=top;spacingTop=-4;fontSize=14;fontFamily=Verdana" vertex="1" parent="JdckZwiv4Vz8IotJhRvg-1">
          <mxGeometry x="830" y="40" width="60" height="20" as="geometry" />
        </mxCell>
        <mxCell id="eX8Egf_gKiMQDiAXbHAk-0" value="" style="line;strokeWidth=1;html=1;rounded=0;shadow=0;labelBackgroundColor=none;fillColor=none;fontFamily=Verdana;fontSize=14;fontColor=#000000;align=center;comic=1;" vertex="1" parent="JdckZwiv4Vz8IotJhRvg-1">
          <mxGeometry x="30" y="140" width="1060" height="10" as="geometry" />
        </mxCell>
        <mxCell id="foWgmu_M1EKHJ5MpVbjE-0" value="Search" style="strokeWidth=1;shadow=0;dashed=0;align=center;html=1;shape=mxgraph.mockup.forms.searchBox;strokeColor=#999999;mainText=;strokeColor2=#008cff;fontColor=#666666;fontSize=17;align=left;spacingLeft=3;rounded=0;labelBackgroundColor=none;comic=1;" vertex="1" parent="JdckZwiv4Vz8IotJhRvg-1">
          <mxGeometry x="840" y="90" width="220" height="30" as="geometry" />
        </mxCell>
        <mxCell id="Dfo5TYXATlCj5pegN7uC-0" value="&lt;h1&gt;Create new box&lt;/h1&gt;" style="text;html=1;strokeColor=none;fillColor=none;spacing=5;spacingTop=-20;whiteSpace=wrap;overflow=hidden;rounded=0;shadow=0;" vertex="1" parent="JdckZwiv4Vz8IotJhRvg-1">
          <mxGeometry x="40" y="160" width="190" height="120" as="geometry" />
        </mxCell>
        <mxCell id="Dfo5TYXATlCj5pegN7uC-1" value="Box Name: Logans&#39; Toys" style="text;html=1;strokeColor=none;fillColor=none;align=center;verticalAlign=middle;whiteSpace=wrap;rounded=0;shadow=0;" vertex="1" parent="JdckZwiv4Vz8IotJhRvg-1">
          <mxGeometry x="40" y="210" width="150" height="40" as="geometry" />
        </mxCell>
        <mxCell id="Dfo5TYXATlCj5pegN7uC-2" value="Box Location: Logans Room" style="text;html=1;strokeColor=none;fillColor=none;align=center;verticalAlign=middle;whiteSpace=wrap;rounded=0;shadow=0;" vertex="1" parent="JdckZwiv4Vz8IotJhRvg-1">
          <mxGeometry x="40" y="240" width="150" height="40" as="geometry" />
        </mxCell>
        <mxCell id="Dfo5TYXATlCj5pegN7uC-3" value="Box Category: Bedroom" style="text;html=1;strokeColor=none;fillColor=none;align=center;verticalAlign=middle;whiteSpace=wrap;rounded=0;shadow=0;" vertex="1" parent="JdckZwiv4Vz8IotJhRvg-1">
          <mxGeometry x="40" y="280" width="150" height="40" as="geometry" />
        </mxCell>
        <mxCell id="Dfo5TYXATlCj5pegN7uC-4" value="Storage Location:&amp;nbsp;" style="text;html=1;strokeColor=none;fillColor=none;align=center;verticalAlign=middle;whiteSpace=wrap;rounded=0;shadow=0;" vertex="1" parent="JdckZwiv4Vz8IotJhRvg-1">
          <mxGeometry x="40" y="320" width="150" height="40" as="geometry" />
        </mxCell>
        <mxCell id="Dfo5TYXATlCj5pegN7uC-12" value="Logans Toys" style="swimlane;fontStyle=0;childLayout=stackLayout;horizontal=1;startSize=80;horizontalStack=0;resizeParent=1;resizeParentMax=0;resizeLast=0;collapsible=1;marginBottom=0;shadow=0;" vertex="1" parent="JdckZwiv4Vz8IotJhRvg-1">
          <mxGeometry x="700" y="160" width="170" height="350" as="geometry" />
        </mxCell>
        <mxCell id="Dfo5TYXATlCj5pegN7uC-13" value="Thing" style="text;strokeColor=none;fillColor=none;align=left;verticalAlign=middle;spacingLeft=4;spacingRight=4;overflow=hidden;points=[[0,0.5],[1,0.5]];portConstraint=eastwest;rotatable=0;shadow=0;" vertex="1" parent="Dfo5TYXATlCj5pegN7uC-12">
          <mxGeometry y="80" width="170" height="30" as="geometry" />
        </mxCell>
        <mxCell id="Dfo5TYXATlCj5pegN7uC-24" value="Thing" style="text;strokeColor=none;fillColor=none;align=left;verticalAlign=middle;spacingLeft=4;spacingRight=4;overflow=hidden;points=[[0,0.5],[1,0.5]];portConstraint=eastwest;rotatable=0;shadow=0;" vertex="1" parent="Dfo5TYXATlCj5pegN7uC-12">
          <mxGeometry y="110" width="170" height="30" as="geometry" />
        </mxCell>
        <mxCell id="Dfo5TYXATlCj5pegN7uC-25" value="Thing" style="text;strokeColor=none;fillColor=none;align=left;verticalAlign=middle;spacingLeft=4;spacingRight=4;overflow=hidden;points=[[0,0.5],[1,0.5]];portConstraint=eastwest;rotatable=0;shadow=0;" vertex="1" parent="Dfo5TYXATlCj5pegN7uC-12">
          <mxGeometry y="140" width="170" height="30" as="geometry" />
        </mxCell>
        <mxCell id="Dfo5TYXATlCj5pegN7uC-26" value="Thing" style="text;strokeColor=none;fillColor=none;align=left;verticalAlign=middle;spacingLeft=4;spacingRight=4;overflow=hidden;points=[[0,0.5],[1,0.5]];portConstraint=eastwest;rotatable=0;shadow=0;" vertex="1" parent="Dfo5TYXATlCj5pegN7uC-12">
          <mxGeometry y="170" width="170" height="30" as="geometry" />
        </mxCell>
        <mxCell id="Dfo5TYXATlCj5pegN7uC-27" value="Thing" style="text;strokeColor=none;fillColor=none;align=left;verticalAlign=middle;spacingLeft=4;spacingRight=4;overflow=hidden;points=[[0,0.5],[1,0.5]];portConstraint=eastwest;rotatable=0;shadow=0;" vertex="1" parent="Dfo5TYXATlCj5pegN7uC-12">
          <mxGeometry y="200" width="170" height="30" as="geometry" />
        </mxCell>
        <mxCell id="Dfo5TYXATlCj5pegN7uC-28" value="Thing" style="text;strokeColor=none;fillColor=none;align=left;verticalAlign=middle;spacingLeft=4;spacingRight=4;overflow=hidden;points=[[0,0.5],[1,0.5]];portConstraint=eastwest;rotatable=0;shadow=0;" vertex="1" parent="Dfo5TYXATlCj5pegN7uC-12">
          <mxGeometry y="230" width="170" height="30" as="geometry" />
        </mxCell>
        <mxCell id="Dfo5TYXATlCj5pegN7uC-29" value="Thing" style="text;strokeColor=none;fillColor=none;align=left;verticalAlign=middle;spacingLeft=4;spacingRight=4;overflow=hidden;points=[[0,0.5],[1,0.5]];portConstraint=eastwest;rotatable=0;shadow=0;" vertex="1" parent="Dfo5TYXATlCj5pegN7uC-12">
          <mxGeometry y="260" width="170" height="30" as="geometry" />
        </mxCell>
        <mxCell id="Dfo5TYXATlCj5pegN7uC-30" value="Thing" style="text;strokeColor=none;fillColor=none;align=left;verticalAlign=middle;spacingLeft=4;spacingRight=4;overflow=hidden;points=[[0,0.5],[1,0.5]];portConstraint=eastwest;rotatable=0;shadow=0;" vertex="1" parent="Dfo5TYXATlCj5pegN7uC-12">
          <mxGeometry y="290" width="170" height="30" as="geometry" />
        </mxCell>
        <mxCell id="Dfo5TYXATlCj5pegN7uC-31" value="Thing" style="text;strokeColor=none;fillColor=none;align=left;verticalAlign=middle;spacingLeft=4;spacingRight=4;overflow=hidden;points=[[0,0.5],[1,0.5]];portConstraint=eastwest;rotatable=0;shadow=0;" vertex="1" parent="Dfo5TYXATlCj5pegN7uC-12">
          <mxGeometry y="320" width="170" height="30" as="geometry" />
        </mxCell>
        <mxCell id="Dfo5TYXATlCj5pegN7uC-32" value="&lt;h1&gt;Enter Item&lt;/h1&gt;" style="text;html=1;strokeColor=none;fillColor=none;spacing=5;spacingTop=-20;whiteSpace=wrap;overflow=hidden;rounded=0;shadow=0;" vertex="1" parent="JdckZwiv4Vz8IotJhRvg-1">
          <mxGeometry x="280" y="160" width="190" height="120" as="geometry" />
        </mxCell>
        <mxCell id="Dfo5TYXATlCj5pegN7uC-33" value="___________" style="text;html=1;strokeColor=none;fillColor=none;align=center;verticalAlign=middle;whiteSpace=wrap;rounded=0;shadow=0;" vertex="1" parent="JdckZwiv4Vz8IotJhRvg-1">
          <mxGeometry x="260" y="210" width="160" height="25" as="geometry" />
        </mxCell>
        <mxCell id="Dfo5TYXATlCj5pegN7uC-34" value="" style="html=1;shadow=0;dashed=0;align=center;verticalAlign=middle;shape=mxgraph.arrows2.arrow;dy=0.6;dx=40;notch=0;" vertex="1" parent="JdckZwiv4Vz8IotJhRvg-1">
          <mxGeometry x="410" y="185" width="100" height="70" as="geometry" />
        </mxCell>
      </root>
    </mxGraphModel>
  </diagram>
</mxfile>
